<svg width="400" height="400" viewBox="0 0 106 102" fill="none" xmlns="http://www.w3.org/2000/svg">
<path d="M25.9856 95.1953C25.9856 98.4526 23.3397 101.102 20.0768 101.102C16.8121 101.102 14.1663 98.4526 14.1663 95.1953C14.1663 91.9302 16.8121 89.2807 20.0768 89.2807C23.3397 89.2807 25.9856 91.9302 25.9856 95.1953" fill="#5E7173"/>
<path d="M23.8022 95.1953C23.8022 97.25 22.1356 98.9193 20.0768 98.9193C18.0178 98.9193 16.3501 97.25 16.3501 95.1953C16.3501 93.1355 18.0178 91.4661 20.0768 91.4661C22.1356 91.4661 23.8022 93.1355 23.8022 95.1953" fill="#B5C6C3"/>
<path d="M22.7877 94.8431C22.7877 96.3354 21.5757 97.5515 20.0757 97.5515C18.5768 97.5515 17.3632 96.3354 17.3632 94.8431C17.3632 93.3431 18.5768 92.1275 20.0757 92.1275C21.5757 92.1275 22.7877 93.3431 22.7877 94.8431Z" fill="#91A3A2"/>
<path d="M21.8397 93.5499C22.2902 94.5125 21.8752 95.6619 20.9126 96.1114C19.9481 96.5593 18.7992 96.1458 18.3501 95.1849L15.634 89.3874C15.1809 88.4193 15.5992 87.2729 16.561 86.8259C17.5262 86.3754 18.6714 86.7833 19.1236 87.7526L21.8397 93.5499" fill="#91A3A2"/>
<path d="M80.5934 95.1953C80.5934 98.4526 77.9481 101.102 74.6834 101.102C71.4205 101.102 68.773 98.4526 68.773 95.1953C68.773 91.9302 71.4205 89.2807 74.6834 89.2807C77.9481 89.2807 80.5934 91.9302 80.5934 95.1953" fill="#5E7173"/>
<path d="M78.4101 95.1953C78.4101 97.25 76.7434 98.9193 74.6834 98.9193C72.6252 98.9193 70.9585 97.25 70.9585 95.1953C70.9585 93.1355 72.6252 91.4661 74.6834 91.4661C76.7434 91.4661 78.4101 93.1355 78.4101 95.1953" fill="#B5C6C3"/>
<path d="M77.3954 94.8431C77.3954 96.3354 76.1824 97.5515 74.6834 97.5515C73.1844 97.5515 71.9714 96.3354 71.9714 94.8431C71.9714 93.3431 73.1844 92.1275 74.6834 92.1275C76.1824 92.1275 77.3954 93.3431 77.3954 94.8431Z" fill="#91A3A2"/>
<path d="M76.4481 93.5499C76.8986 94.5125 76.4829 95.6619 75.5194 96.1114C74.5558 96.5593 73.4074 96.1458 72.9569 95.1849L70.2408 89.3874C69.7886 88.4193 70.2053 87.2729 71.1694 86.8259C72.1325 86.3754 73.2798 86.7833 73.732 87.7526L76.4481 93.5499" fill="#91A3A2"/>
<path d="M74.7954 69.9688H11.1063C10.3371 69.9688 9.661 69.4552 9.45846 68.7114L0.060997 34.4328C-0.187936 33.5234 0.347531 32.5833 1.25793 32.3328C2.16526 32.0885 3.10633 32.6166 3.35793 33.5312L12.4101 66.5516H73.3423L83.3153 5.29169C83.4345 4.57023 83.9943 4.0021 84.7147 3.8781L102.228 0.8901C103.159 0.733833 104.04 1.35676 104.199 2.2885C104.359 3.21823 103.733 4.09943 102.802 4.26089L86.4923 7.04209L76.4829 68.5344C76.3475 69.362 75.6325 69.9688 74.7954 69.9688" fill="#91A3A2"/>
<path d="M1.70851 35.6901C0.841313 35.6901 0.100112 35.0369 0.00904557 34.1568C-0.0857544 33.2182 0.595979 32.3781 1.53665 32.2833L81.535 24.0994C82.4533 23.974 83.3111 24.6822 83.4091 25.6218C83.5039 26.5593 82.8214 27.4005 81.8814 27.4953L1.88251 35.6792C1.82411 35.6874 1.76678 35.6901 1.70851 35.6901" fill="#91A3A2"/>
<path d="M81.7085 88.3593H12.8153C11.871 88.3593 11.1063 87.5969 11.1063 86.6515C11.1063 85.7062 11.871 84.9421 12.8153 84.9421H79.2407L73.1949 68.8619C72.8631 67.9765 73.311 66.9926 74.1949 66.6619C75.0689 66.3207 76.0621 66.7729 76.3954 67.6619L83.3085 86.0499C83.5047 86.5754 83.4325 87.1619 83.1131 87.6218C82.7938 88.0859 82.2694 88.3593 81.7085 88.3593" fill="#91A3A2"/>
<path d="M5.15734 47.1713C4.24947 47.2011 3.4724 46.5099 3.40214 45.5995C3.3276 44.6568 4.0324 43.8355 4.9724 43.7636L78.7527 38.026C79.6661 37.9005 80.5157 38.6568 80.588 39.5943C80.6609 40.5369 79.9584 41.3568 79.0167 41.4303L5.238 47.1661C5.2104 47.1688 5.1844 47.1713 5.15734 47.1713Z" fill="#91A3A2"/>
<path d="M8.49852 60.4636C7.58706 60.4636 6.83079 59.7396 6.79373 58.8234C6.75466 57.8781 7.48906 57.086 8.43239 57.0448L76.7234 54.2808C77.66 54.2312 78.462 54.9797 78.4995 55.9193C78.5376 56.8645 77.8032 57.6593 76.8604 57.6978L8.56879 60.4636C8.54532 60.4636 8.52186 60.4636 8.49852 60.4636Z" fill="#91A3A2"/>
<path d="M20.0913 69.9688C19.3047 69.9688 18.6001 69.4166 18.4361 68.6141L11.2486 33.4193C11.0621 32.4994 11.6506 31.6088 12.5662 31.4193C13.4787 31.2338 14.3751 31.8234 14.5621 32.7448L21.7495 67.9396C21.9377 68.8541 21.3475 69.75 20.4325 69.9354C20.3189 69.9584 20.2053 69.9688 20.0913 69.9688Z" fill="#91A3A2"/>
<path d="M31.7268 69.9688C30.897 69.9688 30.1694 69.3645 30.0386 68.5208L24.358 31.7286C24.2148 30.7994 24.8528 29.925 25.7866 29.7808C26.7288 29.6432 27.5913 30.2781 27.7356 31.2088L33.4162 67.9994C33.5601 68.9328 32.9205 69.8046 31.9881 69.9474C31.8996 69.9636 31.8121 69.9688 31.7268 69.9688" fill="#91A3A2"/>
<path d="M42.5325 69.9688C41.6391 69.9688 40.8866 69.2754 40.8293 68.3677L38.4162 30.2369C38.3563 29.2969 39.0725 28.4849 40.0142 28.4276C40.9449 28.3098 41.7667 29.0754 41.8277 30.0234L44.2391 68.1541C44.3006 69.0942 43.5845 69.9062 42.6434 69.9661C42.6064 69.9688 42.5705 69.9688 42.5325 69.9688Z" fill="#91A3A2"/>
<path d="M53.771 69.9688C52.8267 69.9688 52.061 69.2036 52.061 68.2609V28.7688C52.061 27.826 52.8267 27.0593 53.771 27.0593C54.7147 27.0593 55.4787 27.826 55.4787 28.7688V68.2609C55.4787 69.2036 54.7147 69.9688 53.771 69.9688Z" fill="#91A3A2"/>
<path d="M63.9325 69.9688C63.87 69.9688 63.8048 69.9661 63.7424 69.9584C62.8033 69.8568 62.1272 69.0098 62.232 68.0754L66.7929 26.938C66.8986 26.0021 67.758 25.3302 68.6798 25.425C69.6184 25.5286 70.2938 26.3729 70.1913 27.313L65.6288 68.4474C65.5325 69.3234 64.7918 69.9688 63.9325 69.9688Z" fill="#91A3A2"/>
<path d="M105.831 2.27131C106.051 3.72864 105.049 5.09171 103.591 5.30984L86.4839 7.89265C85.0271 8.11665 83.6678 7.11145 83.448 5.65411C83.2267 4.19531 84.2287 2.83278 85.6876 2.61412L102.793 0.0311821C104.253 -0.192685 105.611 0.813044 105.831 2.27131" fill="#559949"/>
</svg>
