<svg width="300" height="400" viewBox="0 0 655 724" fill="none" xmlns="http://www.w3.org/2000/svg">
<path d="M410.571 80.1574L402.228 73.6907L406.867 61.4254L408.143 59.8121L419.564 48.0054C419.564 48.0054 424.604 41.8894 431.253 47.0494C435.603 50.4094 431.733 47.4054 431.733 47.4054C437.684 52.0254 433.188 58.788 433.188 58.788L421.6 76.5441C418.932 80.1374 414.397 83.12 410.571 80.1574Z" fill="#E7DFB5"/>
<path d="M347.532 54.1279H400.527V45.9842H347.532V54.1279Z" fill="#C13030"/>
<path d="M436.828 58.3162H363.595C362.869 58.3055 362.275 57.7254 362.275 56.9961V43.3468C362.275 42.6148 362.869 42.0321 363.595 42.0321H436.828V58.3162Z" fill="#D83F3F"/>
<path d="M470.309 62.0535H388.021C387.291 62.0535 386.697 61.4628 386.697 60.7308V39.6095C386.697 38.8828 387.291 38.2868 388.021 38.2868H470.309V62.0535Z" fill="#E94D4C"/>
<path d="M466.811 62.084C466.811 63.7013 468.131 65.0239 469.755 65.0239C471.381 65.0239 472.697 63.7013 472.697 62.084L472.695 38.1493C472.697 36.5267 471.381 35.2066 469.755 35.2066C468.131 35.2066 466.811 36.5267 466.811 38.1493V62.084Z" fill="#457071"/>
<path d="M472.752 38.1959C476.987 40.6199 479.844 45.1826 479.844 50.42C479.844 55.656 476.987 60.2159 472.752 62.6479V38.1959Z" fill="#E7DFB5"/>
<path d="M349.82 53.8027C349.82 54.4387 349.304 54.9561 348.665 54.9561C348.028 54.9561 347.511 54.4387 347.511 53.8027V46.3281C347.511 45.6827 348.028 45.1721 348.665 45.1721C349.304 45.1721 349.82 45.6827 349.82 46.3281V53.8027Z" fill="#457071"/>
<path d="M362.275 54.1279H349.775C349.804 54.0239 349.82 53.9159 349.82 53.8026V50.1786H362.275V54.1279Z" fill="#A22828"/>
<path d="M386.697 58.3162H363.595C362.869 58.3055 362.275 57.7254 362.275 56.9961V54.1281V50.1788H386.697V58.3162Z" fill="#B53535"/>
<path d="M466.811 62.0535H388.021C387.291 62.0535 386.697 61.4628 386.697 60.7308V58.3162V50.1788H466.811V62.0535Z" fill="#C44140"/>
<path d="M469.755 65.0239C468.131 65.0239 466.811 63.7013 466.811 62.084V62.0533V50.1786H472.695L472.697 62.084C472.697 63.7013 471.381 65.0239 469.755 65.0239Z" fill="#3A5E5F"/>
<path d="M348.665 54.9561C348.661 54.9561 348.656 54.9561 348.652 54.9561C348.656 54.9561 348.661 54.9561 348.665 54.9561C348.671 54.9561 348.675 54.9561 348.68 54.9561C348.675 54.9561 348.671 54.9561 348.665 54.9561ZM348.683 54.9561C348.687 54.9561 348.691 54.956 348.693 54.9547C348.691 54.956 348.687 54.9561 348.683 54.9561ZM348.647 54.9561C348.644 54.9561 348.641 54.956 348.639 54.9547C348.641 54.956 348.644 54.9561 348.647 54.9561ZM348.697 54.9547C348.701 54.9547 348.705 54.9547 348.709 54.9547C348.705 54.9547 348.701 54.9547 348.697 54.9547ZM348.632 54.9547C348.629 54.9547 348.628 54.9547 348.625 54.9547C348.628 54.9547 348.629 54.9547 348.632 54.9547ZM348.711 54.9547C348.789 54.952 348.865 54.9414 348.94 54.9227C348.867 54.9414 348.789 54.952 348.711 54.9547ZM348.617 54.9547C348.617 54.9547 348.616 54.9547 348.615 54.9547C348.616 54.9547 348.617 54.9547 348.617 54.9547ZM348.945 54.9214C348.947 54.9214 348.948 54.9214 348.949 54.9201C348.948 54.9214 348.947 54.9214 348.945 54.9214Z" fill="#877B65"/>
<path d="M347.557 54.1279H347.532V54.0212C347.539 54.0572 347.547 54.0933 347.557 54.1279Z" fill="#A22828"/>
<path d="M348.665 54.9561C348.661 54.9561 348.656 54.9561 348.652 54.9561C348.651 54.9561 348.648 54.9561 348.647 54.9561C348.644 54.9561 348.641 54.956 348.639 54.9547C348.636 54.9547 348.635 54.9547 348.632 54.9547C348.629 54.9547 348.628 54.9547 348.625 54.9547C348.623 54.9547 348.62 54.9547 348.617 54.9547C348.617 54.9547 348.616 54.9547 348.615 54.9547C348.119 54.9334 347.716 54.5934 347.577 54.1281H347.557C347.547 54.0934 347.539 54.0574 347.532 54.0214V53.9014L347.511 53.8027V50.1787H349.82V53.8027C349.82 53.9161 349.804 54.0241 349.775 54.1281H349.757C349.641 54.5187 349.34 54.8214 348.949 54.9201C348.948 54.9214 348.947 54.9214 348.945 54.9214C348.944 54.9214 348.941 54.9227 348.94 54.9227C348.865 54.9414 348.789 54.952 348.711 54.9547H348.709C348.705 54.9547 348.701 54.9547 348.697 54.9547C348.696 54.9547 348.695 54.9547 348.693 54.9547C348.691 54.956 348.687 54.9561 348.683 54.9561C348.681 54.9561 348.68 54.9561 348.68 54.9561C348.675 54.9561 348.671 54.9561 348.665 54.9561Z" fill="#3A5E5F"/>
<path d="M479.823 50.064C479.829 50.188 479.844 50.3013 479.844 50.42C479.844 55.656 476.987 60.2159 472.752 62.6479V50.064H479.823Z" fill="#D1C8A1"/>
<path d="M411.165 72.0174C413.657 68.8654 411.048 63.4268 408.169 61.1521C407.183 60.3521 411.26 53.9775 411.544 50.6135C411.835 47.0721 408.345 46.5641 407.411 46.9495C406.684 47.2415 402.476 57.9561 401.323 60.6135C397.453 69.4748 400.196 72.0761 403.059 74.3521C405.925 76.6295 408.659 75.1574 411.165 72.0174Z" fill="#E7DFB5"/>
<path d="M404.056 73.252L416.973 84.5533L374.353 134.823L321.287 145.532C321.287 145.532 302.38 150.135 299.885 135.369C297.811 123.071 307.097 118.121 315.571 116.691C324.043 115.267 362.049 108.845 362.049 108.845L395.155 70.6652L404.056 73.252Z" fill="#3B6363"/>
<path d="M399.387 63.6813C400.763 62.2147 401.76 62.4946 403.096 63.7626L420.085 79.6613C421.379 80.9 421.379 80.9 419.863 82.9213L413.761 91.772C412.384 93.2267 411.045 92.8893 409.181 91.1173L391.921 74.78C390.661 73.5974 390.789 72.6494 392.213 71.252L399.387 63.6813Z" fill="#E5AF4D"/>
<path d="M320.416 379.3C320.416 379.3 320.016 387.735 323.395 393.441C323.671 393.795 323.88 394.091 323.999 394.248C328.035 399.86 331.231 402.252 331.661 402.775C336.032 408.225 331.107 412.581 326.083 412.581H302.241C302.241 412.581 289.425 413.729 289.425 399.717V392.325L320.416 379.3Z" fill="white"/>
<path d="M327.2 374.635C327.2 374.635 325.284 387.869 336.577 392.325C336.856 392.68 360.599 401.961 360.785 402.019C366.979 403.897 366.979 407.264 366.979 407.947C366.979 411.855 364.189 412.603 361.509 412.581H307.545C307.545 412.581 294.731 413.729 294.731 399.717V392.325L327.2 374.635Z" fill="white"/>
<path d="M330.348 391.48L356.468 401.497C360.22 403.104 364.197 404.6 364.197 409.821V412.603C364.197 416.135 363.72 417.811 359.971 417.811H335.08C331.187 417.811 322.4 413.524 319.009 412.603C319.009 412.603 312.132 411.881 310.477 411.881C306.364 411.881 301.632 414.867 301.632 417.811H288.387C285.493 417.811 284.595 417.152 284.595 414.888V391.409L330.348 391.48Z" fill="#DB4949"/>
<path d="M334.017 391.472L361.207 401.497C364.956 403.104 368.937 404.6 368.937 409.821V412.603C368.937 416.135 368.455 417.811 364.705 417.811H334.616C330.724 417.811 327.392 416.864 323.999 415.949C323.999 415.949 316.775 413.496 315.169 413.115C312.139 412.4 306.364 414.867 306.364 417.811H293.121C290.225 417.811 289.329 417.152 289.329 414.888V391.409L334.017 391.472Z" fill="#E94D4C"/>
<path d="M368.937 412.445V412.603C368.937 416.135 368.455 417.811 364.705 417.811H334.616C330.724 417.811 327.392 416.864 323.999 415.949C323.999 415.949 316.775 413.496 315.169 413.115C311.399 412.22 314.96 417.811 311.081 417.811H293.121C290.225 417.811 289.329 417.152 289.329 414.888V412.445H368.937Z" fill="#457071"/>
<path d="M282.884 252.673C282.884 252.673 280.58 229.549 309.221 229.549C331.908 229.549 331.908 253.627 331.908 253.627L320.433 392.325H289.484L282.884 252.673Z" fill="white"/>
<path d="M325.809 23.0039L345.395 23.9333L341.004 74.4599C340.024 88.9653 333.888 91.1213 329.497 91.1333C320.368 91.1346 310.28 85.9186 305.195 82.8599C295.356 76.9399 295.687 59.98 295.615 58.608L292.681 24.8L325.809 23.0039Z" fill="#E7DFB5"/>
<path d="M284.319 117.115L291.684 100.608V64.5814H316.149V96.2174C316.149 100.399 316.217 100.788 318.427 104.335L330.452 123.533C333.336 128.177 339.364 135.535 339.364 148.509V219.832L281.187 227.924V133.232C281.187 127.711 282.249 122.237 284.319 117.115Z" fill="#E7DFB5"/>
<path d="M339.364 216.272V229.549C339.364 239.403 337.019 256.127 337.019 256.127L291.684 257.852C285.973 256.696 281.187 248.905 281.187 241.052V216.272H339.364Z" fill="#14546D"/>
<path d="M282.884 252.673C282.884 252.673 287.383 236.596 307.377 236.596C310.036 236.596 307.377 236.571 315.248 236.596C334.355 236.652 337.019 256.127 337.019 256.127L325.113 391.757L294.783 392.325L282.884 252.673Z" fill="white"/>
<path d="M343.875 13.0372C350.644 13.5946 350.785 23.6159 343.168 26.8679C339.329 28.5052 329.017 32.4652 329.017 32.4652C324.269 34.1546 324.28 37.8572 324.28 40.1932V54.9679C324.28 56.8986 323.259 58.3866 320.409 57.3719C318.503 56.7013 317.311 53.9012 316.747 51.8292C316.747 51.8292 315.124 50.4853 312.708 50.4853H309.06C306.483 50.4853 305.981 49.9599 305.327 52.3559L301.572 66.6973C299.657 72.9653 295.824 75.3826 293.405 75.4053H291.524C288.164 67.0239 283.061 53.9199 281.187 49.1959C275.273 34.3359 281.805 4.56924 316.716 9.87057L343.875 13.0372Z" fill="#7C6F5C"/>
<path d="M310.591 48.0052C316.709 48.0052 317.384 53.8599 317.384 53.8599V66.1345C317.384 66.1345 317.091 68.8012 314.791 69.2732C311.315 69.9879 309.809 66.9385 308.252 63.6039C308.16 63.4132 306.179 58.4812 306.061 58.1879C304.361 54.0025 304.811 48.0052 310.591 48.0052Z" fill="#F4EBC9"/>
<path d="M330.452 123.533C333.336 128.177 344.301 144.259 344.301 156.208V239.141C344.301 242.677 344.164 243.476 340.632 243.476H280.831C277.296 243.476 276.776 242.677 276.776 239.141V134.011C276.776 124.425 290.132 102.415 290.132 102.415L323.043 112.012L330.452 123.533Z" fill="#457071"/>
<path d="M274.573 239.781L254.657 232.207L266.641 174.9L283.083 131.661C283.083 131.661 288.78 112.701 303.021 118.112C314.885 122.623 314.441 133.316 311.335 141.496C308.231 149.663 294.291 186.32 294.291 186.32L279.704 232.689L274.573 239.781Z" fill="#5A8C8C"/>
<path d="M336.196 246.587L333.925 392.325L287.404 404.561C285.429 404.561 285.005 404.479 284.749 401.807L279.761 245.177L336.196 246.587Z" fill="#233A39"/>
<path d="M339.019 243.531L335.744 388.163C335.744 394.491 331.572 396.108 325.204 397.529C311.065 400.673 291.029 403.615 291.029 403.615C288.739 403.621 288.744 402.821 288.46 400.291L279.293 243.296L339.019 243.531Z" fill="#305150"/>
<path d="M260.321 233.477L270.371 236.735L270.163 249.852L269.503 251.799L262.76 266.78C262.76 266.78 260.093 274.244 252.085 271.635C246.853 269.947 251.519 271.461 251.519 271.461C244.348 269.133 246.285 261.248 246.285 261.248L251.181 240.621C252.475 236.335 255.721 231.992 260.321 233.477Z" fill="#E7DFB5"/>
<path d="M262.529 241.345C261.252 245.149 265.545 249.391 269.02 250.548C270.221 250.959 268.547 258.351 269.421 261.615C270.351 265.035 273.805 264.333 274.553 263.657C275.141 263.137 275.465 251.631 275.652 248.735C276.288 239.085 272.827 237.567 269.36 236.396C265.892 235.231 263.823 237.535 262.529 241.345Z" fill="#E7DFB5"/>
<path d="M277.795 240.053C277.148 241.777 276.216 241.888 274.641 241.288L254.721 233.843C253.193 233.26 253.193 233.26 253.771 231.019L255.8 221.412C256.455 219.696 257.701 219.511 259.899 220.351L280.201 228.064C281.679 228.625 281.901 229.475 281.187 231.141L277.795 240.053Z" fill="#E5AF4D"/>
<path d="M323.043 112.012L330.452 123.533C330.724 123.983 331.083 124.544 331.485 125.173C328.796 125.235 325.36 124.763 322.032 122.68C316.556 119.265 300.771 108.216 294.208 103.605L323.043 112.012Z" fill="#CE973E"/>
<path d="M292.832 94.2346C291.263 93.2093 290.132 93.58 290.132 95.2693V102.32L320.603 121.884C321.919 122.824 323.043 123.299 323.199 121.791V112.012C323.199 108.124 322.581 107.801 319.037 106.191L292.832 94.2346Z" fill="#E5AF4D"/>
<path d="M221.596 470.525C230.38 466.6 236.504 457.808 236.504 447.569C236.504 437.327 230.38 428.549 221.596 424.632V422.329H408.525C416.492 422.329 422.948 428.785 422.948 436.753V458.385C422.948 466.351 416.492 472.808 408.525 472.808H305.38H221.596V470.525Z" fill="#E7DFB5"/>
<path d="M216.297 472.763C216.297 470.343 218.256 468.371 220.671 468.347L408.525 468.471C414.088 468.471 418.619 463.947 418.619 458.385V436.753C418.619 431.192 414.088 426.664 408.525 426.664H241.94H232.135H220.548C218.2 426.664 216.297 424.764 216.297 422.419C216.297 420.072 218.2 418.172 220.548 418.172L408.525 418C418.873 418 427.287 426.415 427.287 436.753V458.385C427.287 468.721 418.873 477.136 408.525 477.136H220.671C218.256 477.136 216.297 475.179 216.297 472.763Z" fill="#E94D4C"/>
<path d="M221.772 529.671C230.552 525.745 236.684 516.949 236.684 506.707C236.684 496.472 230.552 487.695 221.772 483.777V481.475H408.711C416.676 481.475 423.132 487.931 423.132 495.897V517.529C423.132 525.488 416.676 531.945 408.711 531.945H305.559H221.772V529.671Z" fill="#E7DFB5"/>
<path d="M216.485 531.901C216.485 529.484 218.431 527.512 220.852 527.491L408.711 527.617C414.272 527.617 418.797 523.091 418.797 517.529V495.897C418.797 490.335 414.272 485.803 408.711 485.803H220.725C218.389 485.803 216.485 483.907 216.485 481.56C216.485 479.216 219.427 477.136 221.772 477.136H408.711C419.052 477.136 427.464 485.552 427.464 495.897V517.529C427.464 527.865 419.052 536.28 408.711 536.28H220.852C218.437 536.28 216.485 534.323 216.485 531.901Z" fill="#457071"/>
<path d="M171.832 593.593C181.513 589.261 188.279 579.559 188.279 568.267C188.279 556.976 181.513 547.293 171.832 542.972V540.429H378.031C386.817 540.429 393.94 547.551 393.94 556.34V580.199C393.94 588.979 386.817 596.1 378.031 596.1H264.252H171.832V593.593Z" fill="#E7DFB5"/>
<path d="M166 596.053C166 593.387 168.145 591.215 170.817 591.191L378.031 591.325C384.164 591.325 389.157 586.337 389.157 580.199V556.34C389.157 550.204 384.164 545.204 378.031 545.204H170.676C168.099 545.204 166 543.112 166 540.523C166 537.94 169.243 535.644 171.832 535.644H378.031C389.437 535.644 398.717 544.929 398.717 556.34V580.199C398.717 591.605 389.437 600.887 378.031 600.887H170.817C168.153 600.887 166 598.725 166 596.053Z" fill="#E94D4C"/>
<path d="M194.992 659.113C204.673 654.781 211.44 645.08 211.44 633.787C211.44 622.495 204.673 612.812 194.992 608.492V605.949H401.192C409.979 605.949 417.1 613.072 417.1 621.86V645.717C417.1 654.5 409.979 661.62 401.192 661.62H287.412H194.992V659.113Z" fill="#E7DFB5"/>
<path d="M189.161 661.575C189.161 658.907 191.307 656.735 193.977 656.709L401.192 656.847C407.325 656.847 412.317 651.857 412.317 645.717V621.86C412.317 615.724 407.325 610.724 401.192 610.724H193.835C191.26 610.724 189.161 608.632 189.161 606.041C189.161 603.461 192.404 601.164 194.992 601.164H401.192C412.599 601.164 421.877 610.449 421.877 621.86V645.717C421.877 657.124 412.599 666.405 401.192 666.405H193.977C191.313 666.405 189.161 664.247 189.161 661.575Z" fill="#457071"/>
<path d="M431.556 695.415C431.556 685.959 436.188 677.616 443.279 672.452C440.333 669.128 436.083 667.003 431.293 667.003H417.964C414.456 667.003 411.239 668.148 408.599 670.055H357.917V720.849H409.419C411.904 722.406 414.817 723.351 417.964 723.351H431.293C435.956 723.351 440.112 721.345 443.052 718.188C436.087 713.009 431.556 704.749 431.556 695.415Z" fill="#E7DFB5"/>
<path d="M449.393 714.788H396.807C392.124 709.724 389.233 702.984 389.233 695.536C389.233 687.879 392.279 680.94 397.203 675.833H449.393C451.785 675.833 453.732 673.887 453.732 671.484C453.732 669.084 451.785 667.135 449.393 667.135H417.64H262.972H233.465C224.575 667.135 227.325 674.341 227.325 683.233V707.392C227.325 716.276 224.575 723.476 233.465 723.476H262.972H412.697H449.393C451.785 723.476 453.732 721.532 453.732 719.126C453.732 716.733 451.785 714.788 449.393 714.788Z" fill="#E5AF4D"/>
<path d="M417.765 695.308C417.765 706.067 409.041 714.799 398.279 714.799C387.517 714.799 378.793 706.067 378.793 695.308C378.793 684.547 387.517 675.827 398.279 675.827C409.041 675.827 417.765 684.547 417.765 695.308Z" fill="#E7DFB5"/>
<path d="M259.951 695.439C259.951 710.917 247.4 723.463 231.929 723.463C216.455 723.463 203.904 710.917 203.904 695.439C203.904 679.967 216.455 667.42 231.929 667.42C247.4 667.42 259.951 679.967 259.951 695.439Z" fill="#E5AF4D"/>
<path d="M214.015 661.111H207.839V647.576C207.839 634.929 217.323 624.459 229.552 622.899C231.259 622.681 232.719 624.067 232.719 625.787C232.719 627.501 231.332 628.848 229.641 629.127C220.785 630.597 214.015 638.311 214.015 647.576V661.111Z" fill="#457071"/>
<path d="M233.368 649.668C230.719 647.96 227.327 648.717 224.689 650.443C220.927 652.907 216.432 654.34 211.597 654.34C206.764 654.34 202.265 652.907 198.501 650.443C195.864 648.717 192.476 647.96 189.828 649.668C178.708 656.828 171.341 669.316 171.341 683.527C171.341 705.756 189.365 723.78 211.597 723.78C233.831 723.78 251.852 705.756 251.852 683.527C251.852 669.316 244.488 656.828 233.368 649.668Z" fill="#E94D4C"/>
<path d="M210.976 642.125C210.976 642.125 194.993 647.983 184.769 637.757C174.397 627.384 177.127 608.275 177.127 608.275C177.127 608.275 195.872 605.181 206.611 615.917C216.833 626.141 210.976 642.125 210.976 642.125Z" fill="#E5AF4D"/>
<path d="M176.897 610.773L208.868 642.747C210.193 642.412 210.976 642.125 210.976 642.125C210.976 642.125 211.263 641.34 211.597 640.015L179.584 608.003C178.045 608.125 177.127 608.275 177.127 608.275C177.127 608.275 176.993 609.207 176.897 610.773Z" fill="#C9923A"/>
<path d="M191.06 608.499C189.731 608.271 188.435 608.117 187.201 608.017L187.212 621.088C188.384 621.788 189.139 622.139 189.139 622.139C189.139 622.139 189.893 621.788 191.068 621.088L191.06 608.499Z" fill="#C9923A"/>
<path d="M200.072 611.313C198.812 610.697 197.517 610.179 196.219 609.756L196.112 629.192C197.288 629.895 198.044 630.244 198.044 630.244C198.044 630.244 198.8 629.895 199.976 629.192L200.072 611.313Z" fill="#C9923A"/>
<path d="M208.651 618.332C208.049 617.499 207.38 616.692 206.611 615.917C206.027 615.335 205.419 614.804 204.796 614.299L204.768 637.848C205.94 638.548 206.695 638.897 206.695 638.897C206.695 638.897 207.453 638.548 208.625 637.848L208.651 618.332Z" fill="#C9923A"/>
<path d="M177.349 622.209C177.123 620.88 176.967 619.585 176.871 618.349L189.939 618.36C190.64 619.535 190.992 620.288 190.992 620.288C190.992 620.288 190.64 621.041 189.939 622.216L177.349 622.209Z" fill="#C9923A"/>
<path d="M180.164 631.22C179.549 629.959 179.032 628.665 178.609 627.365L198.044 627.261C198.747 628.437 199.096 629.192 199.096 629.192C199.096 629.192 198.747 629.951 198.044 631.123L180.164 631.22Z" fill="#C9923A"/>
<path d="M187.181 639.799C186.351 639.2 185.543 638.531 184.769 637.757C184.187 637.179 183.656 636.565 183.153 635.944L206.695 635.916C207.396 637.089 207.748 637.848 207.748 637.848C207.748 637.848 207.396 638.6 206.695 639.775L187.181 639.799Z" fill="#C9923A"/>
<path d="M202.969 672.221C202.969 677.695 198.531 682.129 193.061 682.129C187.591 682.129 183.153 677.695 183.153 672.221C183.153 666.749 187.591 662.309 193.061 662.309C198.531 662.309 202.969 666.749 202.969 672.221Z" fill="#F97A7A"/>
<path d="M146.731 203.585C164.653 203.585 179.185 189.053 179.185 171.129C179.185 153.207 164.653 138.677 146.731 138.677C141.844 138.677 137.227 139.788 133.069 141.721C129.521 123.932 113.821 110.524 94.9866 110.524C75.7066 110.524 59.7173 124.575 56.676 142.992C50.2427 141.235 43.0787 142.968 38.1493 148.125C34.4293 152.017 32.7333 157.085 32.9907 162.067C26.8053 161.277 20.3426 163.236 15.5946 167.984C7.44798 176.127 7.44798 189.333 15.5946 197.475C19.74 201.624 25.1987 203.645 30.636 203.571L146.731 203.585Z" fill="#E5E5E5"/>
<path d="M634.375 75.1013C645.36 75.1013 654.265 66.196 654.265 55.2093C654.265 44.2253 645.36 35.32 634.375 35.32C631.379 35.32 628.549 36 626.001 37.1854C623.827 26.2827 614.204 18.0653 602.66 18.0653C590.844 18.0653 581.044 26.6773 579.18 37.9653C575.239 36.8867 570.847 37.9507 567.825 41.1107C565.544 43.4947 564.505 46.6027 564.663 49.6533C560.873 49.1707 556.912 50.372 554 53.2827C549.008 58.272 549.008 66.3666 554 71.3573C556.541 73.9 559.888 75.1386 563.22 75.0933L634.375 75.1013Z" fill="#E5E5E5"/>
<path d="M477.421 329.665C493.496 329.665 506.527 316.635 506.527 300.561C506.527 284.868 494.093 272.111 478.545 271.515C474.401 256.912 460.976 246.211 445.044 246.211C427.451 246.211 412.911 259.26 410.556 276.209C406.121 275.776 401.533 277.255 398.137 280.653C394.793 283.996 393.315 288.491 393.683 292.857C385.587 294.916 379.591 302.232 379.591 310.965C379.591 321.293 387.965 329.665 398.293 329.665H477.421Z" fill="#E5E5E5"/>
<path d="M180.336 377.696C192.248 377.696 201.903 368.04 201.903 356.129C201.903 344.501 192.692 335.048 181.169 334.605C178.099 323.785 168.151 315.857 156.345 315.857C143.308 315.857 132.533 325.527 130.788 338.085C127.501 337.763 124.103 338.86 121.587 341.377C119.108 343.855 118.013 347.185 118.285 350.421C112.288 351.948 107.844 357.367 107.844 363.839C107.844 371.492 114.048 377.696 121.7 377.696H180.336Z" fill="#E5E5E5"/>
<path d="M23.3893 263.264L30.3747 277.42L46 279.691L34.6947 290.711L37.364 306.271L23.3893 298.924L9.41599 306.271L12.084 290.712L0.778656 279.691L16.4027 277.42L23.3893 263.264Z" fill="#FEE8C1"/>
<path d="M527.713 135.64L536.212 152.86L555.216 155.623L541.465 169.027L544.712 187.955L527.713 179.019L510.715 187.955L513.963 169.027L500.211 155.623L519.213 152.86L527.713 135.64Z" fill="#FEE8C1"/>
<path d="M212.349 0.145294L221.193 18.0653L240.968 20.9373L226.659 34.8866L230.035 54.5813L212.349 45.2827L194.661 54.5813L198.039 34.8866L183.731 20.9373L203.505 18.0653L212.349 0.145294Z" fill="#FEE8C1"/>
<path d="M491.691 447.435L496.78 457.747L508.161 459.4L499.925 467.428L501.869 478.763L491.691 473.411L481.511 478.763L483.455 467.428L475.22 459.4L486.6 457.747L491.691 447.435Z" fill="#FEE8C1"/>
<path d="M375.715 477.872L388.723 490.88V445.981H362.708V490.88L375.715 477.872Z" fill="#E5AF4D"/>
</svg>
