<svg id="Capa_1" enable-background="new 0 0 511.854 511.854" height="50" viewBox="0 0 511.854 511.854" width="50" xmlns="http://www.w3.org/2000/svg"><g><g><ellipse cx="221.257" cy="177.152" fill="#eaf0f0" rx="99.302" ry="99.302" transform="matrix(.707 -.707 .707 .707 -60.461 208.339)"/></g><g><path d="m18.247 380.162c-10.827-11.216-11.175-29.347 0-40.521l69.124-69.124 40.521 40.521-69.124 69.124c-11.19 11.19-29.332 11.19-40.521 0z" fill="#ff7e96"/></g><g><path d="m402.961 45.66v420.53h-133.365v-202.26c7.838-4.373 15.211-9.898 21.877-16.565 24.231-24.231 33.331-57.865 27.271-89.156-3.626-18.776-12.716-36.715-27.271-51.27-.03-.03-.071-.071-.101-.101-6.636-6.616-13.979-12.11-21.776-16.464v-44.714z" fill="#ffce62"/></g><g><path d="m269.596 263.92v202.271h-95.035v-201.382c8.333 4.454 17.171 7.616 26.211 9.515 14.504 3.05 29.544 2.828 43.957-.667 8.595-2.081 16.968-5.333 24.867-9.737z" fill="#00d5f5"/></g><g><path d="m402.961 158.209h98.893v307.985h-98.893z" fill="#eaf0f0"/></g><g><path d="m402.961 223.123h98.893v181.079h-98.893z" fill="#ff7e96"/></g><g><path d="m269.596 352.841h133.366v51.361h-133.366z" fill="#eaf0f0"/></g><g><path d="m402.961 106.839v51.371h-84.217c-3.626-18.776-12.716-36.715-27.271-51.27-.03-.03-.071-.071-.101-.101z" fill="#eaf0f0"/></g><g><path d="m244.728 148.21v125.447c-14.413 3.495-29.453 3.717-43.957.667v-126.114z" fill="#00d5f5"/></g><g><path d="m501.854 148.209h-88.893v-102.549c0-5.523-4.478-10-10-10h-133.365c-5.522 0-10 4.477-10 10v29.08c-12.099-4.523-25.036-6.891-38.339-6.891-29.195 0-56.644 11.37-77.288 32.014-20.645 20.645-32.014 48.093-32.014 77.289 0 25.836 8.909 50.3 25.265 69.895l-29.589 29.588-13.189-13.189c-3.856-3.854-10.287-3.854-14.143 0l-69.123 69.124c-14.895 14.895-14.907 39.759.001 54.664 14.877 14.89 39.774 14.888 54.663 0l69.123-69.124c3.905-3.905 3.905-10.237 0-14.142l-13.189-13.189 29.589-29.588c4.188 3.496 8.599 6.652 13.198 9.453v185.549h-72.53c-5.522 0-10 4.477-10 10s4.478 10 10 10l409.823.003c5.522 0 10-4.477 10-10v-105.07c0-5.523-4.478-10-10-10s-10 4.477-10 10v33.078h-78.893v-161.081h78.893v39.181c0 5.523 4.478 10 10 10s10-4.477 10-10v-114.095c0-5.523-4.477-10-10-10zm-450.156 224.882c-7.072 7.07-19.245 7.136-26.381 0-7.13-7.13-7.145-19.233.001-26.379l62.052-62.053 26.38 26.379zm183.03-107.658c-7.921 1.193-16.001 1.312-23.957.391v-107.614h23.957zm44.868 4.196c34-21.541 53.841-61.248 50.598-101.42h62.768v174.632h-113.366zm113.366-121.42h-66.259c-3.039-11.142-7.837-21.711-14.254-31.371h80.513zm-113.366 214.632h113.366v31.361h-113.366zm0-307.181h113.366v41.178h-97.574c-4.884-4.516-10.172-8.603-15.792-12.163zm-121.485 58.345c16.866-16.867 39.292-26.156 63.146-26.156 47.069 0 86.737 37.764 89.172 84.55 2.027 37.655-20.872 73.484-55.7 87.559v-111.748c0-5.523-4.478-10-10-10h-43.957c-5.522 0-10 4.477-10 10v112.899c-34.932-12.65-58.816-46.829-58.816-83.957-.001-23.853 9.288-46.279 26.155-63.147zm26.449 166.163c8.805 3.13 18.04 5.118 27.521 5.901v107.625c0 5.523 4.478 10 10 10s10-4.477 10-10v-107.766c9.494-.927 18.724-3.079 27.514-6.365v176.628h-75.035zm95.036 134.034h113.366v41.989h-113.366zm212.258 0v41.992h-78.893v-41.992zm-78.892-201.079v-44.914h78.893v44.914z"/><path d="m510.164 310.356c-2.983-4.564-9.351-5.769-13.859-2.77-4.542 3.022-5.771 9.341-2.761 13.87 3.02 4.543 9.33 5.765 13.86 2.76 4.544-3.015 5.778-9.337 2.76-13.86z"/></g></g></svg>