<svg width="128" height="179" viewBox="0 0 128 179" fill="none" xmlns="http://www.w3.org/2000/svg">
<g clip-path="url(#clip0)">
<rect width="128" height="178.963" fill="white"/>
<path fill-rule="evenodd" clip-rule="evenodd" d="M11.0722 162.013L11.0471 22.3101L10.9218 21.1288L11.1537 19.9779L11.6306 19.1475L12.3555 18.4226L13.5751 17.6979L15.2879 17.0808L16.913 16.7282L16.9004 158.514L11.0717 162.013L11.0722 162.013Z" fill="white" stroke="black" stroke-width="1.2653" stroke-linecap="round" stroke-linejoin="round"/>
<path fill-rule="evenodd" clip-rule="evenodd" d="M16.4722 16.8154L16.4386 158.723L117.189 158.714L117.219 16.8029L16.4722 16.8154V16.8154Z" fill="white" stroke="black" stroke-width="1.2653" stroke-linecap="round" stroke-linejoin="round"/>
<path fill-rule="evenodd" clip-rule="evenodd" d="M16.7961 158.552L14.4454 158.992L12.7483 159.625L12.0067 160.124L11.4577 160.773L11.2273 161.574L11.3362 162.42L11.8474 163.501L12.0611 163.815L110.981 163.225L116.235 158.682L16.5866 158.762L16.7961 158.552V158.552Z" fill="white" stroke="black" stroke-width="1.2653" stroke-linecap="round" stroke-linejoin="round"/>
<path d="M13.4732 160.459L114.253 160.446" stroke="black" stroke-width="0.63265" stroke-linecap="round" stroke-linejoin="round"/>
<path d="M115.334 159.474L14.9063 159.52" stroke="black" stroke-width="0.63265" stroke-linecap="round" stroke-linejoin="round"/>
<path d="M113.051 161.439L13.0123 161.448" stroke="black" stroke-width="0.63265" stroke-linecap="round" stroke-linejoin="round"/>
<path d="M111.978 162.269L12.2916 162.277" stroke="black" stroke-width="0.63265" stroke-linecap="round" stroke-linejoin="round"/>
<path d="M49.225 63.48C48.665 63.48 48.075 63.26 47.455 62.82C46.835 62.38 46.395 61.88 46.135 61.32C45.895 60.8 45.645 59.15 45.385 56.37C45.145 53.59 45.025 51.52 45.025 50.16V48.57C45.005 48.11 44.995 47.6 44.995 47.04C44.995 46 45.055 44.97 45.175 43.95C45.255 43.45 45.355 43.02 45.475 42.66C45.615 42.3 45.805 41.95 46.045 41.61C46.485 40.93 47.145 40.48 48.025 40.26C48.485 40.14 48.995 40.08 49.555 40.08C49.935 40.08 50.315 40.19 50.695 40.41C51.095 40.63 51.295 40.89 51.295 41.19C51.295 41.41 51.135 41.52 50.815 41.52C50.695 41.52 50.465 41.45 50.125 41.31C49.825 41.17 49.555 41.1 49.315 41.1C48.755 41.1 48.245 41.22 47.785 41.46C47.345 41.68 46.995 41.98 46.735 42.36C46.515 42.68 46.325 43.12 46.165 43.68C46.005 44.24 45.905 44.8 45.865 45.36C45.805 45.86 45.775 46.46 45.775 47.16L45.805 48.84C45.825 49.32 45.835 49.84 45.835 50.4C45.835 51.78 45.975 53.81 46.255 56.49C46.535 59.17 46.805 60.72 47.065 61.14C47.305 61.52 47.655 61.81 48.115 62.01C48.595 62.21 49.095 62.31 49.615 62.31C50.535 62.31 51.235 62.02 51.715 61.44C51.895 61.2 52.085 61.08 52.285 61.08C52.465 61.08 52.555 61.22 52.555 61.5C52.555 61.86 52.445 62.18 52.225 62.46C52.005 62.72 51.705 62.92 51.325 63.06C50.685 63.34 49.985 63.48 49.225 63.48ZM59.0674 63.63C56.2874 63.63 54.8974 58.82 54.8974 49.2V48C54.8974 46.32 54.9974 44.86 55.1974 43.62C55.3174 42.84 55.4774 42.2 55.6774 41.7C55.8974 41.2 56.1874 40.8 56.5474 40.5C56.8874 40.16 57.3274 39.99 57.8674 39.99C58.3474 39.99 58.7874 40.09 59.1874 40.29C59.5874 40.47 59.9174 40.71 60.1774 41.01C60.3974 41.29 60.5974 41.66 60.7774 42.12C60.9574 42.58 61.0974 43.02 61.1974 43.44L61.4374 44.85C61.9174 48.27 62.1574 51.3 62.1574 53.94V54.03C62.1574 55.03 62.1374 55.95 62.0974 56.79C62.0574 57.79 61.9474 58.84 61.7674 59.94C61.6874 60.48 61.5674 60.95 61.4074 61.35C61.2674 61.75 61.0774 62.15 60.8374 62.55C60.4174 63.27 59.8274 63.63 59.0674 63.63ZM59.1274 62.79C59.4474 62.79 59.7374 62.61 59.9974 62.25C60.2574 61.87 60.4574 61.35 60.5974 60.69C60.9174 59.29 61.1174 57.92 61.1974 56.58C61.2374 55.5 61.2574 54.45 61.2574 53.43V53.31L61.2274 50.31C61.1874 49.23 61.0674 47.83 60.8674 46.11C60.7074 44.89 60.3774 43.64 59.8774 42.36C59.6774 41.86 59.4074 41.47 59.0674 41.19C58.7474 40.91 58.3974 40.77 58.0174 40.77C57.6774 40.77 57.3774 40.93 57.1174 41.25C56.8574 41.57 56.6474 42.02 56.4874 42.6C56.1274 43.94 55.9274 45.18 55.8874 46.32C55.8274 47.3 55.7974 48.31 55.7974 49.35V50.82C55.7974 52.16 55.9274 53.86 56.1874 55.92C56.3474 57.22 56.5474 58.35 56.7874 59.31C57.0274 60.27 57.3474 61.08 57.7474 61.74C58.1474 62.44 58.6074 62.79 59.1274 62.79ZM69.2423 63.24C69.0023 63.18 68.8923 63.15 68.9123 63.15C68.5523 61.67 68.1523 59.46 67.7123 56.52L66.0623 45.81L65.7923 44.49C65.3523 42.77 65.1323 41.56 65.1323 40.86C65.1323 40.72 65.1723 40.6 65.2523 40.5C65.3523 40.38 65.4523 40.32 65.5523 40.32C65.6123 40.32 65.6823 40.34 65.7623 40.38C65.8623 40.42 65.9523 40.53 66.0323 40.71C66.1123 40.87 66.1523 41.02 66.1523 41.16L66.2123 41.58L66.6323 43.89L66.9023 45.48L68.4023 55.77L68.7923 58.62C68.9523 59.58 69.0823 60.49 69.1823 61.35L69.3923 59.22L69.7223 55.77L70.4423 49.2C70.6223 47.34 70.7523 46.12 70.8323 45.54L70.9823 43.98L71.1923 42.48C71.2923 41.88 71.3623 41.32 71.4023 40.8C71.4423 40.42 71.6323 40.23 71.9723 40.23L72.1523 40.35H72.0923L72.3923 40.59C72.3923 41.17 72.3123 42.02 72.1523 43.14L71.9723 44.31L71.8823 45.06C71.6223 47.24 71.4623 48.6 71.4023 49.14C71.1023 51.68 70.7823 54.43 70.4423 57.39C70.1223 60.35 69.9523 62.09 69.9323 62.61C69.7723 63.05 69.5823 63.27 69.3623 63.27L69.2423 63.24ZM69.2123 61.53L69.1823 61.44L69.1223 61.53H69.2123ZM77.2882 63.18C76.8082 63.18 76.4682 63.13 76.2682 63.03C76.0882 62.95 75.9982 62.78 75.9982 62.52V61.95C75.9782 61.79 75.9682 61.61 75.9682 61.41V61.35L75.9982 56.97L75.9682 44.58C75.9682 43.3 75.9482 42.19 75.9082 41.25C75.9082 41.01 75.9582 40.81 76.0582 40.65C76.1582 40.49 76.2882 40.41 76.4482 40.41H78.3082C78.5882 40.41 78.7982 40.43 78.9382 40.47C79.1382 40.53 79.2382 40.7 79.2382 40.98C79.2382 41.14 79.1782 41.27 79.0582 41.37C78.9382 41.47 78.8082 41.53 78.6682 41.55H78.1582L77.6782 41.52L77.1982 41.49C77.0582 41.49 76.9582 41.52 76.8982 41.58C76.8582 41.62 76.8382 41.71 76.8382 41.85C76.8382 42.79 76.8482 43.64 76.8682 44.4V46.95V50.7C76.8682 50.74 76.8882 50.76 76.9282 50.76H76.9582H76.9882C77.4882 50.72 78.0282 50.7 78.6082 50.7C78.9282 50.7 79.0882 50.84 79.0882 51.12C79.0882 51.32 79.0482 51.46 78.9682 51.54C78.9082 51.6 78.7982 51.63 78.6382 51.63H76.9282C76.8482 51.63 76.8082 51.68 76.8082 51.78L76.8682 56.22C76.9082 57.6 76.9282 59.19 76.9282 60.99V62.1H78.2182H79.4782H79.7482C80.1082 62.1 80.2882 62.23 80.2882 62.49C80.2882 62.81 80.1982 63 80.0182 63.06C79.7782 63.14 79.2882 63.18 78.5482 63.18H77.2882ZM88.6589 63.3C88.2589 63.3 88.0089 63.1 87.9089 62.7L87.5489 61.38C86.9889 59.52 86.5789 57.95 86.3189 56.67C86.1589 55.97 85.9589 55 85.7189 53.76C85.4389 52.32 85.1789 51.15 84.9389 50.25L84.6389 50.43L84.2489 50.61L84.3089 62.16V62.61C84.3089 63.01 84.1289 63.21 83.7689 63.21C83.6089 63.21 83.4789 63.16 83.3789 63.06C83.2789 62.96 83.2289 62.84 83.2289 62.7V62.25L83.2889 56.19L83.3489 53.28C83.4289 49.78 83.4689 46.8 83.4689 44.34V40.47C83.4689 40.29 83.6489 40.2 84.0089 40.2C84.5289 40.2 85.0089 40.34 85.4489 40.62C85.9089 40.9 86.2689 41.28 86.5289 41.76C87.0689 42.74 87.3389 43.81 87.3389 44.97C87.3389 45.89 87.1389 46.89 86.7389 47.97C86.6189 48.27 86.4689 48.62 86.2889 49.02C86.1089 49.4 85.9489 49.66 85.8089 49.8C86.2289 51.34 86.8389 53.71 87.6389 56.91L89.0489 62.31C89.0689 62.37 89.0789 62.48 89.0789 62.64C89.0789 62.82 89.0389 62.97 88.9589 63.09C88.8989 63.23 88.7989 63.3 88.6589 63.3ZM84.2189 49.62C84.3789 49.62 84.6489 49.43 85.0289 49.05C85.4089 48.67 85.6789 48.35 85.8389 48.09C85.9789 47.81 86.0989 47.39 86.1989 46.83C86.2989 46.27 86.3489 45.77 86.3489 45.33C86.3489 44.51 86.2089 43.67 85.9289 42.81C85.7889 42.31 85.5789 41.91 85.2989 41.61C85.0189 41.29 84.7089 41.13 84.3689 41.13H84.3089C84.2889 41.15 84.2589 41.16 84.2189 41.16V49.62ZM56.0858 101.33C55.9458 101.33 55.8158 101.26 55.6958 101.12C55.5758 100.98 55.4958 100.82 55.4558 100.64L55.3658 100.07C55.3058 99.83 55.2758 99.68 55.2758 99.62C53.0358 91.6 51.8058 87.1 51.5858 86.12C51.4058 85.4 50.9958 83.4 50.3558 80.12C50.3358 80.24 50.3258 80.65 50.3258 81.35V92.21L50.3858 96.5L50.4458 100.76L50.2658 101H49.5758L49.4858 100.76C49.5258 100.56 49.5458 100.16 49.5458 99.56L49.5158 94.34L49.4558 89.12V85.19V82.34C49.4358 81.5 49.4258 80.56 49.4258 79.52C49.4258 79.4 49.4158 79.29 49.3958 79.19V78.89C49.3958 78.65 49.4558 78.49 49.5758 78.41C49.7158 78.31 49.9258 78.26 50.2058 78.26C50.3258 78.26 50.4558 78.32 50.5958 78.44C50.7558 78.56 50.8558 78.69 50.8958 78.83L51.5258 81.77C51.8058 83.17 52.0458 84.23 52.2458 84.95C52.6658 86.61 53.3858 89.33 54.4058 93.11C54.9858 95.59 55.5058 97.49 55.9658 98.81C56.0858 98.51 56.1458 98.03 56.1458 97.37C56.1458 95.43 56.1658 93.69 56.2058 92.15L56.2658 86.93C56.2658 86.07 56.2758 85.29 56.2958 84.59V82.28L56.2658 78.05C56.3658 77.77 56.5758 77.63 56.8958 77.63C57.0558 77.63 57.1358 77.92 57.1358 78.5C57.1358 78.76 57.1258 78.97 57.1058 79.13C57.1058 79.29 57.0958 79.41 57.0758 79.49C57.0758 79.55 57.0758 79.59 57.0758 79.61V81.53C57.0758 84.19 57.0658 86.56 57.0458 88.64C57.0258 90.74 57.0158 93.1 57.0158 95.72C57.0158 96.22 56.9858 97.01 56.9258 98.09L56.8658 100.46C56.8658 101.04 56.6058 101.33 56.0858 101.33ZM65.3223 101.63C62.5423 101.63 61.1523 96.82 61.1523 87.2V86C61.1523 84.32 61.2523 82.86 61.4523 81.62C61.5723 80.84 61.7323 80.2 61.9323 79.7C62.1523 79.2 62.4423 78.8 62.8023 78.5C63.1423 78.16 63.5823 77.99 64.1223 77.99C64.6023 77.99 65.0423 78.09 65.4423 78.29C65.8423 78.47 66.1723 78.71 66.4323 79.01C66.6523 79.29 66.8523 79.66 67.0323 80.12C67.2123 80.58 67.3523 81.02 67.4523 81.44L67.6923 82.85C68.1723 86.27 68.4123 89.3 68.4123 91.94V92.03C68.4123 93.03 68.3923 93.95 68.3523 94.79C68.3123 95.79 68.2023 96.84 68.0223 97.94C67.9423 98.48 67.8223 98.95 67.6623 99.35C67.5223 99.75 67.3323 100.15 67.0923 100.55C66.6723 101.27 66.0823 101.63 65.3223 101.63ZM65.3823 100.79C65.7023 100.79 65.9923 100.61 66.2523 100.25C66.5123 99.87 66.7123 99.35 66.8523 98.69C67.1723 97.29 67.3723 95.92 67.4523 94.58C67.4923 93.5 67.5123 92.45 67.5123 91.43V91.31L67.4823 88.31C67.4423 87.23 67.3223 85.83 67.1223 84.11C66.9623 82.89 66.6323 81.64 66.1323 80.36C65.9323 79.86 65.6623 79.47 65.3223 79.19C65.0023 78.91 64.6523 78.77 64.2723 78.77C63.9323 78.77 63.6323 78.93 63.3723 79.25C63.1123 79.57 62.9023 80.02 62.7423 80.6C62.3823 81.94 62.1823 83.18 62.1423 84.32C62.0823 85.3 62.0523 86.31 62.0523 87.35V88.82C62.0523 90.16 62.1823 91.86 62.4423 93.92C62.6023 95.22 62.8023 96.35 63.0423 97.31C63.2823 98.27 63.6023 99.08 64.0023 99.74C64.4023 100.44 64.8623 100.79 65.3823 100.79ZM75.3172 101.18C75.1172 101.18 74.9672 101.11 74.8672 100.97C74.7672 100.81 74.7172 100.62 74.7172 100.4V97.73V95.06L74.6572 90.26C74.5972 88.12 74.5672 86.52 74.5672 85.46L74.5972 84.59V82.64C74.5972 80.48 74.5772 79.4 74.5372 79.4H71.1472C70.9872 79.4 70.8372 79.36 70.6972 79.28C70.5772 79.2 70.5172 79.09 70.5172 78.95C70.5172 78.79 70.5472 78.68 70.6072 78.62C70.6672 78.56 70.8272 78.51 71.0872 78.47C71.3672 78.41 71.7672 78.38 72.2872 78.38H75.2872L78.5872 78.35C78.8272 78.35 78.9872 78.39 79.0672 78.47C79.1672 78.55 79.2172 78.68 79.2172 78.86C79.2172 79.16 79.0272 79.31 78.6472 79.31H77.2972H75.9772L75.7072 79.34L75.7372 81.08V83.42V95.6V98.09L75.7672 100.31V100.37C75.7672 100.53 75.7572 100.67 75.7372 100.79C75.7172 100.89 75.6772 100.97 75.6172 101.03C75.5572 101.13 75.4572 101.18 75.3172 101.18ZM34.0775 139C33.9175 139 33.7775 138.95 33.6575 138.85C33.5575 138.75 33.5075 138.63 33.5075 138.49V134.56C33.5075 134.32 32.9975 134.1 31.9775 133.9C30.9575 133.7 30.1175 133.6 29.4575 133.6C29.4175 133.6 29.3475 133.75 29.2475 134.05C29.1675 134.35 29.1075 134.57 29.0675 134.71C28.8075 135.75 28.5475 136.86 28.2875 138.04L28.1375 138.7C28.0975 138.86 27.9975 138.94 27.8375 138.94C27.6775 138.94 27.5275 138.89 27.3875 138.79C27.2675 138.69 27.2075 138.57 27.2075 138.43L27.2375 138.37V138.34L27.5675 136.84C27.8075 135.9 28.0175 134.98 28.1975 134.08C28.3975 133.06 28.5475 132.4 28.6475 132.1C28.8075 131.44 29.1275 129.79 29.6075 127.15L29.7875 126.16C30.3075 123.08 30.6675 121.14 30.8675 120.34C30.9675 119.86 31.1475 119.15 31.4075 118.21C31.5075 117.81 31.6475 117.41 31.8275 117.01C32.0075 116.67 32.1575 116.5 32.2775 116.5C32.5975 116.5 32.8275 116.6 32.9675 116.8C33.0675 116.98 33.2175 117.97 33.4175 119.77C33.6375 121.57 33.8275 123.39 33.9875 125.23L34.3775 130.21C34.3775 131.07 34.4375 132.37 34.5575 134.11C34.6775 135.87 34.7375 137.18 34.7375 138.04V138.16C34.7375 138.38 34.7075 138.58 34.6475 138.76C34.5675 138.92 34.3775 139 34.0775 139ZM32.8775 133.21C33.2775 133.21 33.4775 133.11 33.4775 132.91C33.4775 131.67 33.4075 129.98 33.2675 127.84C33.1275 125.68 32.9775 123.78 32.8175 122.14C32.7775 121.44 32.6975 120.67 32.5775 119.83L32.4575 118.66C32.4575 118.68 32.4375 118.57 32.3975 118.33L32.3375 117.97C32.1775 118.41 32.0175 119.02 31.8575 119.8C31.7175 120.58 31.5675 121.5 31.4075 122.56C30.9275 125.54 30.5175 127.78 30.1775 129.28L29.9075 130.3C29.6075 131.3 29.4575 132.06 29.4575 132.58V132.76C30.3375 133.04 31.3475 133.18 32.4875 133.18H32.6675C32.7275 133.2 32.7975 133.21 32.8775 133.21ZM41.8937 139.24C41.6537 139.18 41.5437 139.15 41.5637 139.15C41.2037 137.67 40.8037 135.46 40.3637 132.52L38.7137 121.81L38.4437 120.49C38.0037 118.77 37.7837 117.56 37.7837 116.86C37.7837 116.72 37.8237 116.6 37.9037 116.5C38.0037 116.38 38.1037 116.32 38.2037 116.32C38.2637 116.32 38.3337 116.34 38.4137 116.38C38.5137 116.42 38.6037 116.53 38.6837 116.71C38.7637 116.87 38.8037 117.02 38.8037 117.16L38.8637 117.58L39.2837 119.89L39.5537 121.48L41.0537 131.77L41.4437 134.62C41.6037 135.58 41.7337 136.49 41.8337 137.35L42.0437 135.22L42.3737 131.77L43.0937 125.2C43.2737 123.34 43.4037 122.12 43.4837 121.54L43.6337 119.98L43.8437 118.48C43.9437 117.88 44.0137 117.32 44.0537 116.8C44.0937 116.42 44.2837 116.23 44.6237 116.23L44.8037 116.35H44.7437L45.0437 116.59C45.0437 117.17 44.9637 118.02 44.8037 119.14L44.6237 120.31L44.5337 121.06C44.2737 123.24 44.1137 124.6 44.0537 125.14C43.7537 127.68 43.4337 130.43 43.0937 133.39C42.7737 136.35 42.6037 138.09 42.5837 138.61C42.4237 139.05 42.2337 139.27 42.0137 139.27L41.8937 139.24ZM41.8637 137.53L41.8337 137.44L41.7737 137.53H41.8637ZM53.5013 139C53.3413 139 53.2013 138.95 53.0813 138.85C52.9813 138.75 52.9313 138.63 52.9313 138.49V134.56C52.9313 134.32 52.4213 134.1 51.4013 133.9C50.3813 133.7 49.5413 133.6 48.8813 133.6C48.8413 133.6 48.7713 133.75 48.6713 134.05C48.5913 134.35 48.5313 134.57 48.4913 134.71C48.2313 135.75 47.9713 136.86 47.7113 138.04L47.5613 138.7C47.5213 138.86 47.4213 138.94 47.2613 138.94C47.1013 138.94 46.9513 138.89 46.8113 138.79C46.6913 138.69 46.6313 138.57 46.6313 138.43L46.6613 138.37V138.34L46.9913 136.84C47.2313 135.9 47.4413 134.98 47.6213 134.08C47.8213 133.06 47.9713 132.4 48.0713 132.1C48.2313 131.44 48.5513 129.79 49.0313 127.15L49.2113 126.16C49.7313 123.08 50.0913 121.14 50.2913 120.34C50.3913 119.86 50.5713 119.15 50.8313 118.21C50.9313 117.81 51.0713 117.41 51.2513 117.01C51.4313 116.67 51.5813 116.5 51.7013 116.5C52.0213 116.5 52.2513 116.6 52.3913 116.8C52.4913 116.98 52.6413 117.97 52.8413 119.77C53.0613 121.57 53.2513 123.39 53.4113 125.23L53.8013 130.21C53.8013 131.07 53.8613 132.37 53.9813 134.11C54.1013 135.87 54.1613 137.18 54.1613 138.04V138.16C54.1613 138.38 54.1313 138.58 54.0713 138.76C53.9913 138.92 53.8013 139 53.5013 139ZM52.3013 133.21C52.7013 133.21 52.9013 133.11 52.9013 132.91C52.9013 131.67 52.8313 129.98 52.6913 127.84C52.5513 125.68 52.4013 123.78 52.2413 122.14C52.2013 121.44 52.1213 120.67 52.0013 119.83L51.8813 118.66C51.8813 118.68 51.8613 118.57 51.8213 118.33L51.7613 117.97C51.6013 118.41 51.4413 119.02 51.2813 119.8C51.1413 120.58 50.9913 121.5 50.8313 122.56C50.3513 125.54 49.9413 127.78 49.6013 129.28L49.3313 130.3C49.0313 131.3 48.8813 132.06 48.8813 132.58V132.76C49.7613 133.04 50.7713 133.18 51.9113 133.18H52.0913C52.1513 133.2 52.2213 133.21 52.3013 133.21ZM60.4775 138.88C59.9975 138.86 59.3875 138.85 58.6475 138.85C58.5075 138.85 58.3775 138.8 58.2575 138.7C58.1575 138.6 58.1075 138.49 58.1075 138.37C58.1075 138.11 58.2775 137.98 58.6175 137.98H59.7875C59.7875 135.68 59.7175 132.78 59.5775 129.28C59.4975 126.48 59.4175 124.28 59.3375 122.68L59.3675 121.15V119.17C59.3675 118.17 59.3475 117.53 59.3075 117.25H58.2575C58.0575 117.25 57.9575 117.11 57.9575 116.83C57.9575 116.65 58.0375 116.51 58.1975 116.41C58.3375 116.35 58.7075 116.32 59.3075 116.32H60.1475C60.4475 116.34 60.8275 116.35 61.2875 116.35C61.4475 116.35 61.5775 116.39 61.6775 116.47C61.7775 116.53 61.8275 116.63 61.8275 116.77C61.8275 116.89 61.7975 117 61.7375 117.1C61.6775 117.2 61.5875 117.25 61.4675 117.25C61.3275 117.25 61.2075 117.24 61.1075 117.22H60.7475H60.4475C60.2475 117.22 60.1275 117.24 60.0875 117.28L60.0275 117.4C60.0275 118.96 60.1575 122.11 60.4175 126.85C60.6575 131.23 60.7775 134.38 60.7775 136.3V137.14C60.7575 137.4 60.7475 137.67 60.7475 137.95H61.8275C62.2875 137.95 62.5175 138.09 62.5175 138.37C62.5175 138.49 62.4675 138.61 62.3675 138.73C62.2875 138.83 62.1975 138.88 62.0975 138.88H60.4775ZM67.3934 139.18C67.2534 139.18 67.1334 139.12 67.0334 139C66.9534 138.88 66.9134 138.73 66.9134 138.55V138.07V137.35C66.9134 136.09 66.8634 134.67 66.7634 133.09C66.6834 131.41 66.6434 129.99 66.6434 128.83C66.6434 127.75 66.5934 125.66 66.4934 122.56C66.3734 119.76 66.3134 117.67 66.3134 116.29C66.3134 116.19 66.3534 116.11 66.4334 116.05C66.5334 115.97 66.6434 115.93 66.7634 115.93C67.1234 115.93 67.3034 116.08 67.3034 116.38C67.3034 120.08 67.3334 122.85 67.3934 124.69L67.5434 130.06C67.5434 130.9 67.6034 132.27 67.7234 134.17L67.9034 137.89C67.9034 137.95 67.9334 137.98 67.9934 137.98C68.0134 138 68.1434 138.01 68.3834 138.01H70.2434C70.5034 138.01 70.6334 138.19 70.6334 138.55C70.6334 138.71 70.6034 138.85 70.5434 138.97C70.4834 139.07 70.3934 139.12 70.2734 139.12L70.0634 139.15H69.8234C69.4034 139.17 68.5934 139.18 67.3934 139.18ZM79.5755 139C79.4155 139 79.2755 138.95 79.1555 138.85C79.0555 138.75 79.0055 138.63 79.0055 138.49V134.56C79.0055 134.32 78.4955 134.1 77.4755 133.9C76.4555 133.7 75.6155 133.6 74.9555 133.6C74.9155 133.6 74.8455 133.75 74.7455 134.05C74.6655 134.35 74.6055 134.57 74.5655 134.71C74.3055 135.75 74.0455 136.86 73.7855 138.04L73.6355 138.7C73.5955 138.86 73.4955 138.94 73.3355 138.94C73.1755 138.94 73.0255 138.89 72.8855 138.79C72.7655 138.69 72.7055 138.57 72.7055 138.43L72.7355 138.37V138.34L73.0655 136.84C73.3055 135.9 73.5155 134.98 73.6955 134.08C73.8955 133.06 74.0455 132.4 74.1455 132.1C74.3055 131.44 74.6255 129.79 75.1055 127.15L75.2855 126.16C75.8055 123.08 76.1655 121.14 76.3655 120.34C76.4655 119.86 76.6455 119.15 76.9055 118.21C77.0055 117.81 77.1455 117.41 77.3255 117.01C77.5055 116.67 77.6555 116.5 77.7755 116.5C78.0955 116.5 78.3255 116.6 78.4655 116.8C78.5655 116.98 78.7155 117.97 78.9155 119.77C79.1355 121.57 79.3255 123.39 79.4855 125.23L79.8755 130.21C79.8755 131.07 79.9355 132.37 80.0555 134.11C80.1755 135.87 80.2355 137.18 80.2355 138.04V138.16C80.2355 138.38 80.2055 138.58 80.1455 138.76C80.0655 138.92 79.8755 139 79.5755 139ZM78.3755 133.21C78.7755 133.21 78.9755 133.11 78.9755 132.91C78.9755 131.67 78.9055 129.98 78.7655 127.84C78.6255 125.68 78.4755 123.78 78.3155 122.14C78.2755 121.44 78.1955 120.67 78.0755 119.83L77.9555 118.66C77.9555 118.68 77.9355 118.57 77.8955 118.33L77.8355 117.97C77.6755 118.41 77.5155 119.02 77.3555 119.8C77.2155 120.58 77.0655 121.5 76.9055 122.56C76.4255 125.54 76.0155 127.78 75.6755 129.28L75.4055 130.3C75.1055 131.3 74.9555 132.06 74.9555 132.58V132.76C75.8355 133.04 76.8455 133.18 77.9855 133.18H78.1655C78.2255 133.2 78.2955 133.21 78.3755 133.21ZM85.6217 139.18C84.8817 139.18 84.5117 139.04 84.5117 138.76C84.5117 137.92 84.5417 136.65 84.6017 134.95L84.6617 131.17C84.6617 129.77 84.6317 127.68 84.5717 124.9C84.4917 122.44 84.4517 120.36 84.4517 118.66C84.4517 117.22 84.7117 116.5 85.2317 116.5C86.5717 116.5 87.6017 116.93 88.3217 117.79C89.0617 118.65 89.4317 119.79 89.4317 121.21C89.4317 122.81 88.7917 124.47 87.5117 126.19C88.5717 127.25 89.3117 128.26 89.7317 129.22C90.1717 130.18 90.3917 131.33 90.3917 132.67C90.3917 133.49 90.3617 134.15 90.3017 134.65C90.2617 135.13 90.1717 135.58 90.0317 136C89.8917 136.44 89.6917 136.82 89.4317 137.14C89.1917 137.46 88.8617 137.76 88.4417 138.04C88.0417 138.32 87.5217 138.6 86.8817 138.88C86.6417 138.94 86.4417 138.99 86.2817 139.03C86.0217 139.13 85.8217 139.18 85.6817 139.18H85.6217ZM85.5917 126.04C86.0317 126.04 86.4517 125.85 86.8517 125.47C87.2517 125.09 87.5817 124.59 87.8417 123.97C88.1017 123.39 88.3017 122.79 88.4417 122.17C88.5817 121.53 88.6517 120.95 88.6517 120.43C88.6517 119.73 88.3917 119.07 87.8717 118.45C87.3717 117.83 86.8017 117.52 86.1617 117.52C85.6417 117.52 85.3817 117.95 85.3817 118.81C85.3817 120.15 85.4017 121.35 85.4417 122.41L85.5017 126.01L85.5917 126.04ZM85.8317 138.01C86.5117 138.01 87.1317 137.81 87.6917 137.41C88.2717 136.99 88.7217 136.44 89.0417 135.76C89.3817 135.08 89.5517 134.35 89.5517 133.57C89.5517 129.99 88.6917 127.84 86.9717 127.12C86.8117 127.12 86.5517 127.17 86.1917 127.27C85.8517 127.39 85.6217 127.45 85.5017 127.45C85.6017 130.71 85.6517 134.22 85.6517 137.98H85.7417L85.8317 138.01ZM95.0497 139.18C94.9097 139.18 94.7897 139.12 94.6897 139C94.6097 138.88 94.5697 138.73 94.5697 138.55V138.07V137.35C94.5697 136.09 94.5197 134.67 94.4197 133.09C94.3397 131.41 94.2997 129.99 94.2997 128.83C94.2997 127.75 94.2497 125.66 94.1497 122.56C94.0297 119.76 93.9697 117.67 93.9697 116.29C93.9697 116.19 94.0097 116.11 94.0897 116.05C94.1897 115.97 94.2997 115.93 94.4197 115.93C94.7797 115.93 94.9597 116.08 94.9597 116.38C94.9597 120.08 94.9897 122.85 95.0497 124.69L95.1997 130.06C95.1997 130.9 95.2597 132.27 95.3797 134.17L95.5597 137.89C95.5597 137.95 95.5897 137.98 95.6497 137.98C95.6697 138 95.7997 138.01 96.0397 138.01H97.8997C98.1597 138.01 98.2897 138.19 98.2897 138.55C98.2897 138.71 98.2597 138.85 98.1997 138.97C98.1397 139.07 98.0497 139.12 97.9297 139.12L97.7197 139.15H97.4797C97.0597 139.17 96.2497 139.18 95.0497 139.18ZM102.762 139.18C102.282 139.18 101.942 139.13 101.742 139.03C101.562 138.95 101.472 138.78 101.472 138.52V137.95C101.452 137.79 101.442 137.61 101.442 137.41V137.35L101.472 132.97L101.442 120.58C101.442 119.3 101.422 118.19 101.382 117.25C101.382 117.01 101.432 116.81 101.532 116.65C101.632 116.49 101.762 116.41 101.922 116.41H103.782C104.062 116.41 104.272 116.43 104.412 116.47C104.612 116.53 104.712 116.7 104.712 116.98C104.712 117.14 104.652 117.27 104.532 117.37C104.412 117.47 104.282 117.53 104.142 117.55H103.632L103.152 117.52L102.672 117.49C102.532 117.49 102.432 117.52 102.372 117.58C102.332 117.62 102.312 117.71 102.312 117.85C102.312 118.79 102.322 119.64 102.342 120.4V122.95V126.7C102.342 126.74 102.362 126.76 102.402 126.76H102.432H102.462C102.962 126.72 103.502 126.7 104.082 126.7C104.402 126.7 104.562 126.84 104.562 127.12C104.562 127.32 104.522 127.46 104.442 127.54C104.382 127.6 104.272 127.63 104.112 127.63H102.402C102.322 127.63 102.282 127.68 102.282 127.78L102.342 132.22C102.382 133.6 102.402 135.19 102.402 136.99V138.1H103.692H104.952H105.222C105.582 138.1 105.762 138.23 105.762 138.49C105.762 138.81 105.672 139 105.492 139.06C105.252 139.14 104.762 139.18 104.022 139.18H102.762Z" fill="black"/>
</g>
<defs>
<clipPath id="clip0">
<rect width="128" height="178.963" fill="white"/>
</clipPath>
</defs>
</svg>
